<?xml version="1.0" standalone="no"?>
<!DOCTYPE svg PUBLIC "-//W3C//DTD SVG 20010904//EN"
 "http://www.w3.org/TR/2001/REC-SVG-20010904/DTD/svg10.dtd">
<svg version="1.0" xmlns="http://www.w3.org/2000/svg"
 width="300.000000pt" height="300.000000pt" viewBox="0 0 300.000000 300.000000"
 preserveAspectRatio="xMidYMid meet">
<metadata>
Created by potrace 1.11, written by Peter Selinger 2001-2013
</metadata>
<g transform="translate(0.000000,300.000000) scale(0.100000,-0.100000)"
fill="#000000" stroke="none">
<path d="M1215 2980 c-240 -23 -502 -77 -649 -132 l-28 -11 6 -71 c9 -97 28
-688 23 -693 -3 -2 -45 -8 -93 -13 -179 -19 -279 -37 -323 -60 -117 -60 -139
-177 -49 -263 44 -42 155 -100 272 -142 l79 -29 -51 -22 c-136 -60 -226 -230
-185 -350 17 -49 79 -116 133 -144 22 -11 40 -24 40 -28 0 -4 -7 -34 -15 -68
-41 -175 -42 -582 -1 -799 2 -11 9 -50 16 -88 l12 -67 44 0 c24 0 44 3 44 8 0
4 -9 61 -20 127 -33 200 -44 421 -31 597 13 162 29 256 47 279 14 17 24 70 13
63 -5 -3 -6 2 -3 10 3 9 9 14 13 12 3 -2 7 12 8 33 l1 36 -21 -37 c-12 -21
-24 -38 -27 -38 -16 0 -115 68 -113 78 2 7 -4 9 -14 5 -13 -5 -15 -2 -9 12 4
11 4 16 0 12 -15 -15 -34 17 -34 60 0 50 25 117 40 108 5 -3 7 0 4 8 -3 8 12
29 35 50 39 35 92 57 142 57 36 0 90 -20 83 -31 -3 -5 1 -6 9 -4 7 3 22 -3 32
-15 26 -29 85 -25 85 6 0 17 -1 17 45 -2 l38 -15 -32 -20 c-17 -10 -37 -18
-43 -16 -7 1 -13 -2 -13 -8 -1 -5 -22 -31 -47 -56 -79 -81 -127 -214 -113
-318 4 -31 8 -68 9 -83 0 -14 4 -24 7 -22 14 8 51 -100 46 -132 -8 -47 9 -100
44 -135 38 -39 124 -79 170 -79 36 0 37 -1 41 -45 7 -60 31 -93 85 -117 51
-22 116 -20 181 7 32 14 34 14 27 -3 -16 -38 -17 -53 -5 -81 12 -29 61 -61 94
-61 13 0 16 -12 16 -59 0 -77 9 -84 121 -89 89 -4 89 -4 89 20 0 24 1 25 57
17 72 -10 93 0 93 46 0 35 7 40 58 38 7 -1 11 1 8 4 -3 3 6 14 19 25 14 10 30
37 36 58 10 34 9 44 -9 80 l-21 42 23 -21 c63 -59 211 -80 269 -39 18 13 35
23 39 23 3 0 10 4 15 9 5 6 2 6 -6 1 -11 -6 -13 -4 -7 11 4 10 10 34 13 51 5
28 10 33 33 33 49 0 120 31 167 74 l47 43 6 89 c4 59 13 101 26 124 15 28 19
56 20 147 0 62 -3 110 -7 108 -4 -3 -10 6 -13 19 -3 13 -21 47 -40 74 -40 59
-42 57 77 67 43 4 93 11 110 16 18 5 52 12 77 15 24 3 48 8 52 10 26 16 -14
-55 -49 -87 -32 -29 -95 -69 -110 -69 -6 0 -14 10 -19 21 -8 17 -10 9 -9 -32
1 -32 10 -68 21 -89 17 -32 19 -58 19 -285 0 -137 -3 -293 -8 -345 -14 -183
-27 -325 -32 -362 l-5 -38 48 0 48 0 13 167 c7 93 17 215 22 273 11 147 11
482 -1 560 -10 64 -10 65 18 85 73 53 121 114 139 175 18 60 19 61 76 85 111
45 177 112 177 179 0 35 -31 94 -67 127 -65 61 -235 159 -325 188 -21 7 -40
16 -42 20 -3 4 27 90 65 192 138 364 199 539 199 569 0 22 -11 40 -42 71 -140
135 -493 241 -968 288 -117 12 -462 12 -585 1z m-58 -1672 c110 -51 180 -226
139 -348 -14 -44 -14 -44 -13 -10 2 34 2 35 -48 42 -27 3 -64 11 -81 16 -23 7
-36 7 -44 -1 -10 -9 -11 -9 -6 1 4 6 2 12 -3 12 -6 0 -11 -6 -12 -12 0 -8 -3
-7 -6 2 -10 27 -36 50 -56 50 -41 0 -107 -58 -78 -68 6 -2 11 -12 11 -22 0
-10 5 -22 10 -25 13 -8 3 -25 -13 -25 -8 0 -8 3 2 9 9 6 10 10 2 16 -15 9
-141 -114 -134 -132 3 -7 8 -11 12 -8 4 2 8 -3 8 -11 0 -27 -54 35 -78 90 -17
38 -23 70 -23 126 0 88 13 130 58 194 86 121 229 163 353 104z m361 -57 c11
-7 9 -17 -9 -52 -12 -24 -25 -55 -30 -69 -5 -17 -8 -19 -8 -7 -1 10 -12 40
-26 68 l-26 49 23 10 c29 11 59 12 76 1z m492 -31 l148 0 22 -52 c25 -59 38
-162 22 -172 -7 -4 -9 3 -6 20 4 20 1 25 -10 21 -8 -3 -32 -9 -53 -12 -45 -7
-131 -25 -156 -32 -10 -3 -16 -10 -14 -16 2 -7 -1 -18 -9 -24 -10 -10 -12 -6
-7 22 7 45 -10 65 -54 65 -24 0 -41 -8 -59 -27 -14 -15 -21 -29 -15 -31 6 -2
11 -11 11 -21 0 -9 5 -22 10 -27 7 -7 -7 -27 -44 -62 -31 -29 -54 -58 -52 -65
1 -6 1 -9 -1 -4 -3 4 -8 7 -12 7 -11 0 -10 -69 2 -77 6 -4 8 0 4 10 -3 9 -2
19 2 21 5 3 8 -5 7 -17 -1 -12 9 -32 23 -45 l26 -24 -31 21 c-44 29 -57 47
-49 71 4 11 2 20 -4 20 -6 0 -11 -6 -11 -12 0 -21 -26 25 -43 75 -11 33 -16
76 -14 135 3 92 19 136 75 211 25 33 26 33 85 27 33 -3 126 -6 207 -6z m167
-222 c-3 -8 -6 -5 -6 6 -1 11 2 17 5 13 3 -3 4 -12 1 -19z m-1067 -27 c-5 -11
-15 -23 -20 -26 -6 -4 -7 -11 -4 -17 4 -7 2 -8 -4 -4 -8 5 -5 16 10 37 25 33
34 38 18 10z m877 -3 c-3 -8 -6 -5 -6 6 -1 11 2 17 5 13 3 -3 4 -12 1 -19z
m205 -40 l-12 -33 5 32 c4 27 2 31 -13 26 -14 -6 -15 -5 -2 9 22 25 35 4 22
-34z m-1135 10 c0 -7 -12 -14 -26 -15 l-26 -1 25 14 c14 7 25 13 26 14 0 0 1
-6 1 -12z m60 -3 c0 -8 -4 -12 -9 -9 -5 3 -6 10 -3 15 9 13 12 11 12 -6z m863
1 c0 -2 -7 -7 -16 -10 -8 -3 -12 -2 -9 4 6 10 25 14 25 6z m-773 -28 c-3 -8
-6 -5 -6 6 -1 11 2 17 5 13 3 -3 4 -12 1 -19z m707 7 c-4 -8 -11 -12 -16 -9
-6 4 -5 10 3 15 19 12 19 11 13 -6z m-637 -10 c4 -4 2 -5 -4 -1 -9 5 -12 0
-10 -16 1 -15 -3 -22 -12 -20 -8 2 -11 -3 -8 -12 7 -18 -28 -52 -38 -36 -4 6
-4 14 -1 17 3 4 6 1 6 -7 0 -10 3 -10 16 1 14 11 14 13 0 21 -9 5 -16 17 -15
26 0 14 2 14 8 -2 5 -14 10 -16 15 -8 4 7 12 10 17 7 12 -8 11 6 -1 25 -7 11
-10 11 -10 2 0 -7 -5 -10 -11 -6 -8 5 -8 9 1 14 15 9 36 7 47 -5z m213 -10 c0
-24 63 -117 112 -166 24 -24 51 -53 59 -64 8 -11 28 -32 46 -47 l32 -26 -23
-16 c-17 -10 -25 -27 -28 -55 -2 -21 -1 -38 2 -36 3 2 10 -8 17 -21 l11 -24
-25 19 c-13 11 -39 25 -56 30 -19 7 -33 18 -34 29 -3 39 -7 61 -13 60 -3 -1
-23 7 -45 17 -74 33 -215 -9 -215 -65 0 -9 -15 -23 -33 -32 l-34 -16 4 46 c5
45 4 48 -31 66 l-36 19 58 29 c31 16 70 41 86 56 47 45 105 128 118 171 13 41
28 55 28 26z m-613 -77 c1 -10 -2 -20 -7 -23 -4 -2 -7 3 -6 13 0 10 -6 16 -16
16 -10 -1 -15 2 -13 6 10 16 41 6 42 -12z m1226 5 c-3 -7 -6 -13 -8 -13 -2 0
-5 6 -8 13 -3 8 1 14 8 14 7 0 11 -6 8 -14z m51 5 c-4 -5 -9 -7 -12 -4 -3 3
-12 0 -21 -7 -14 -10 -14 -10 -4 4 13 16 46 23 37 7z m-1004 -13 c0 -2 -6 -5
-13 -8 -8 -3 -14 1 -14 8 0 7 6 11 14 8 7 -3 13 -6 13 -8z m45 -15 c3 -6 -1
-7 -9 -4 -18 7 -21 14 -7 14 6 0 13 -4 16 -10z m945 6 c0 -2 -8 -10 -17 -17
-16 -13 -17 -12 -4 4 13 16 21 21 21 13z m-990 -21 c-7 -8 -18 -15 -24 -15 -6
0 -2 7 8 15 25 19 32 19 16 0z m-273 -12 c-4 -3 -1 -13 6 -22 11 -14 10 -14
-5 -2 -16 12 -16 31 -1 31 4 0 3 -3 0 -7z m1213 -8 c0 -8 -4 -15 -10 -15 -5 0
-7 7 -4 15 4 8 8 15 10 15 2 0 4 -7 4 -15z m-930 0 c0 -2 -10 -9 -22 -15 -22
-11 -22 -10 -4 4 21 17 26 19 26 11z m658 -30 c-3 -3 -9 2 -12 12 -6 14 -5 15
5 6 7 -7 10 -15 7 -18z m252 0 c0 -2 -5 -7 -12 -11 -7 -4 -8 -3 -4 4 4 7 1 12
-9 12 -11 0 -15 -5 -11 -15 3 -9 -3 -19 -14 -25 -11 -6 -20 -7 -20 -3 0 4 -5
2 -12 -5 -7 -7 -17 -12 -22 -12 -6 1 -1 9 12 20 13 11 30 16 40 13 15 -5 14
-3 -2 16 -17 18 -17 21 -3 15 10 -3 17 -1 17 5 0 9 5 9 20 1 11 -6 20 -13 20
-15z m-1080 -10 c0 -2 -14 -3 -31 -3 -17 1 -25 4 -18 8 10 7 49 2 49 -5z m795
7 c6 -4 17 -16 25 -27 11 -15 7 -14 -15 5 -17 14 -32 26 -34 28 -2 1 0 2 5 2
5 0 14 -4 19 -8z m45 -68 c0 -2 -7 -4 -15 -4 -8 0 -15 4 -15 10 0 5 7 7 15 4
8 -4 15 -8 15 -10z m77 0 c-3 -3 -12 -4 -19 -1 -8 3 -5 6 6 6 11 1 17 -2 13
-5z m-887 -114 c-14 -11 -31 -18 -38 -15 -7 3 -10 0 -7 -5 4 -6 -7 -10 -24
-10 -27 0 -50 15 -39 26 2 2 25 4 51 5 25 1 52 6 59 10 24 16 23 9 -2 -11z
m554 -57 c3 -4 16 -8 28 -10 33 -5 97 -45 114 -71 27 -42 33 -76 18 -112 -24
-57 -81 -80 -103 -42 -8 13 -10 2 -11 -45 l0 -63 -47 0 c-27 0 -54 4 -62 9 -7
5 -16 32 -19 60 -4 50 -4 51 24 52 29 1 29 1 4 9 -53 17 -53 17 -46 -75 l6
-86 -87 3 -88 3 -3 50 c-3 70 -9 92 -26 92 -31 0 -75 26 -86 52 -14 34 -3 64
39 109 52 56 101 72 227 72 61 0 114 -3 118 -7z"/>
<path d="M620 1420 c-9 -6 -10 -10 -3 -10 6 0 15 5 18 10 8 12 4 12 -15 0z"/>
<path d="M515 1383 c-27 -9 -62 -24 -76 -34 -14 -10 -28 -17 -30 -15 -2 2 -5
-15 -7 -40 -2 -36 3 -49 28 -77 24 -28 34 -33 61 -29 18 3 26 8 19 12 -8 5 -1
23 21 59 23 36 35 48 41 39 5 -9 7 -4 6 12 -2 15 2 24 8 23 16 -3 5 37 -12 44
-8 3 -11 9 -8 14 3 5 4 9 2 8 -2 -1 -25 -8 -53 -16z"/>
<path d="M420 1196 c0 -2 8 -10 18 -17 15 -13 16 -12 3 4 -13 16 -21 21 -21
13z"/>
</g>
</svg>
